<mxfile host="app.diagrams.net" agent="Mozilla/5.0 (Windows NT 10.0; Win64; x64) AppleWebKit/537.36 (KHTML, like Gecko) Chrome/139.0.0.0 Safari/537.36 Edg/139.0.0.0" version="28.1.0">
  <diagram name="第 1 页" id="3qfA8Mtb4AT6Ri3JGO9B">
    <mxGraphModel dx="2849" dy="1122" grid="1" gridSize="10" guides="1" tooltips="1" connect="1" arrows="1" fold="1" page="1" pageScale="1" pageWidth="827" pageHeight="1169" math="0" shadow="0">
      <root>
        <mxCell id="0" />
        <mxCell id="1" parent="0" />
        <mxCell id="D4osHIyZ-YNcSRswqnrZ-230" style="edgeStyle=orthogonalEdgeStyle;rounded=0;orthogonalLoop=1;jettySize=auto;html=1;entryX=1;entryY=0.5;entryDx=0;entryDy=0;" parent="1" source="D4osHIyZ-YNcSRswqnrZ-218" edge="1">
          <mxGeometry relative="1" as="geometry">
            <mxPoint x="1110" y="395" as="targetPoint" />
          </mxGeometry>
        </mxCell>
        <mxCell id="D4osHIyZ-YNcSRswqnrZ-218" value="" style="rounded=0;whiteSpace=wrap;html=1;dashed=1;dashPattern=8 8;" parent="1" vertex="1">
          <mxGeometry x="855" y="190" width="205" height="410" as="geometry" />
        </mxCell>
        <mxCell id="D4osHIyZ-YNcSRswqnrZ-229" style="edgeStyle=orthogonalEdgeStyle;rounded=0;orthogonalLoop=1;jettySize=auto;html=1;entryX=0;entryY=0.5;entryDx=0;entryDy=0;" parent="1" source="D4osHIyZ-YNcSRswqnrZ-191" target="D4osHIyZ-YNcSRswqnrZ-218" edge="1">
          <mxGeometry relative="1" as="geometry" />
        </mxCell>
        <mxCell id="D4osHIyZ-YNcSRswqnrZ-191" value="" style="rounded=0;whiteSpace=wrap;html=1;dashed=1;dashPattern=8 8;" parent="1" vertex="1">
          <mxGeometry x="695" y="190" width="90" height="410" as="geometry" />
        </mxCell>
        <mxCell id="D4osHIyZ-YNcSRswqnrZ-196" style="edgeStyle=orthogonalEdgeStyle;rounded=0;orthogonalLoop=1;jettySize=auto;html=1;exitX=1;exitY=0.5;exitDx=0;exitDy=0;entryX=0;entryY=0.5;entryDx=0;entryDy=0;" parent="1" source="D4osHIyZ-YNcSRswqnrZ-190" target="D4osHIyZ-YNcSRswqnrZ-191" edge="1">
          <mxGeometry relative="1" as="geometry" />
        </mxCell>
        <mxCell id="D4osHIyZ-YNcSRswqnrZ-190" value="" style="rounded=0;whiteSpace=wrap;html=1;dashed=1;dashPattern=8 8;" parent="1" vertex="1">
          <mxGeometry x="30" y="190" width="620" height="410" as="geometry" />
        </mxCell>
        <mxCell id="D4osHIyZ-YNcSRswqnrZ-173" value="" style="group" parent="1" vertex="1" connectable="0">
          <mxGeometry x="490" y="305" width="140" height="180" as="geometry" />
        </mxCell>
        <mxCell id="D4osHIyZ-YNcSRswqnrZ-158" value="" style="rounded=0;whiteSpace=wrap;html=1;" parent="D4osHIyZ-YNcSRswqnrZ-173" vertex="1">
          <mxGeometry width="40" height="40" as="geometry" />
        </mxCell>
        <mxCell id="D4osHIyZ-YNcSRswqnrZ-159" value="" style="rounded=0;whiteSpace=wrap;html=1;" parent="D4osHIyZ-YNcSRswqnrZ-173" vertex="1">
          <mxGeometry y="40" width="40" height="40" as="geometry" />
        </mxCell>
        <mxCell id="D4osHIyZ-YNcSRswqnrZ-163" value="" style="rounded=0;whiteSpace=wrap;html=1;fillColor=#dae8fc;strokeColor=#6c8ebf;" parent="D4osHIyZ-YNcSRswqnrZ-173" vertex="1">
          <mxGeometry x="20" y="20" width="40" height="40" as="geometry" />
        </mxCell>
        <mxCell id="D4osHIyZ-YNcSRswqnrZ-164" value="" style="rounded=0;whiteSpace=wrap;html=1;fillColor=#dae8fc;strokeColor=#6c8ebf;" parent="D4osHIyZ-YNcSRswqnrZ-173" vertex="1">
          <mxGeometry x="20" y="60" width="40" height="40" as="geometry" />
        </mxCell>
        <mxCell id="D4osHIyZ-YNcSRswqnrZ-165" value="" style="rounded=0;whiteSpace=wrap;html=1;" parent="D4osHIyZ-YNcSRswqnrZ-173" vertex="1">
          <mxGeometry x="40" y="40" width="40" height="40" as="geometry" />
        </mxCell>
        <mxCell id="D4osHIyZ-YNcSRswqnrZ-166" value="" style="rounded=0;whiteSpace=wrap;html=1;" parent="D4osHIyZ-YNcSRswqnrZ-173" vertex="1">
          <mxGeometry x="40" y="80" width="40" height="40" as="geometry" />
        </mxCell>
        <mxCell id="D4osHIyZ-YNcSRswqnrZ-167" value="" style="rounded=0;whiteSpace=wrap;html=1;fillColor=#dae8fc;strokeColor=#6c8ebf;" parent="D4osHIyZ-YNcSRswqnrZ-173" vertex="1">
          <mxGeometry x="60" y="60" width="40" height="40" as="geometry" />
        </mxCell>
        <mxCell id="D4osHIyZ-YNcSRswqnrZ-168" value="" style="rounded=0;whiteSpace=wrap;html=1;fillColor=#dae8fc;strokeColor=#6c8ebf;" parent="D4osHIyZ-YNcSRswqnrZ-173" vertex="1">
          <mxGeometry x="60" y="100" width="40" height="40" as="geometry" />
        </mxCell>
        <mxCell id="D4osHIyZ-YNcSRswqnrZ-169" value="" style="rounded=0;whiteSpace=wrap;html=1;" parent="D4osHIyZ-YNcSRswqnrZ-173" vertex="1">
          <mxGeometry x="80" y="80" width="40" height="40" as="geometry" />
        </mxCell>
        <mxCell id="D4osHIyZ-YNcSRswqnrZ-170" value="" style="rounded=0;whiteSpace=wrap;html=1;" parent="D4osHIyZ-YNcSRswqnrZ-173" vertex="1">
          <mxGeometry x="80" y="120" width="40" height="40" as="geometry" />
        </mxCell>
        <mxCell id="D4osHIyZ-YNcSRswqnrZ-171" value="" style="rounded=0;whiteSpace=wrap;html=1;fillColor=#dae8fc;strokeColor=#6c8ebf;" parent="D4osHIyZ-YNcSRswqnrZ-173" vertex="1">
          <mxGeometry x="100" y="100" width="40" height="40" as="geometry" />
        </mxCell>
        <mxCell id="D4osHIyZ-YNcSRswqnrZ-172" value="" style="rounded=0;whiteSpace=wrap;html=1;fillColor=#dae8fc;strokeColor=#6c8ebf;" parent="D4osHIyZ-YNcSRswqnrZ-173" vertex="1">
          <mxGeometry x="100" y="140" width="40" height="40" as="geometry" />
        </mxCell>
        <mxCell id="D4osHIyZ-YNcSRswqnrZ-174" value="" style="group" parent="1" vertex="1" connectable="0">
          <mxGeometry x="310" y="265" width="140" height="260" as="geometry" />
        </mxCell>
        <mxCell id="D4osHIyZ-YNcSRswqnrZ-41" value="" style="rounded=0;whiteSpace=wrap;html=1;" parent="D4osHIyZ-YNcSRswqnrZ-174" vertex="1">
          <mxGeometry width="40" height="40" as="geometry" />
        </mxCell>
        <mxCell id="D4osHIyZ-YNcSRswqnrZ-42" value="" style="rounded=0;whiteSpace=wrap;html=1;" parent="D4osHIyZ-YNcSRswqnrZ-174" vertex="1">
          <mxGeometry y="40" width="40" height="40" as="geometry" />
        </mxCell>
        <mxCell id="D4osHIyZ-YNcSRswqnrZ-43" value="" style="rounded=0;whiteSpace=wrap;html=1;" parent="D4osHIyZ-YNcSRswqnrZ-174" vertex="1">
          <mxGeometry y="80" width="40" height="40" as="geometry" />
        </mxCell>
        <mxCell id="D4osHIyZ-YNcSRswqnrZ-44" value="" style="rounded=0;whiteSpace=wrap;html=1;" parent="D4osHIyZ-YNcSRswqnrZ-174" vertex="1">
          <mxGeometry y="120" width="40" height="40" as="geometry" />
        </mxCell>
        <mxCell id="D4osHIyZ-YNcSRswqnrZ-45" value="" style="rounded=0;whiteSpace=wrap;html=1;fillColor=#dae8fc;strokeColor=#6c8ebf;" parent="D4osHIyZ-YNcSRswqnrZ-174" vertex="1">
          <mxGeometry x="20" y="20" width="40" height="40" as="geometry" />
        </mxCell>
        <mxCell id="D4osHIyZ-YNcSRswqnrZ-46" value="" style="rounded=0;whiteSpace=wrap;html=1;fillColor=#dae8fc;strokeColor=#6c8ebf;" parent="D4osHIyZ-YNcSRswqnrZ-174" vertex="1">
          <mxGeometry x="20" y="60" width="40" height="40" as="geometry" />
        </mxCell>
        <mxCell id="D4osHIyZ-YNcSRswqnrZ-47" value="" style="rounded=0;whiteSpace=wrap;html=1;fillColor=#dae8fc;strokeColor=#6c8ebf;" parent="D4osHIyZ-YNcSRswqnrZ-174" vertex="1">
          <mxGeometry x="20" y="140" width="40" height="40" as="geometry" />
        </mxCell>
        <mxCell id="D4osHIyZ-YNcSRswqnrZ-50" value="" style="rounded=0;whiteSpace=wrap;html=1;fillColor=#dae8fc;strokeColor=#6c8ebf;" parent="D4osHIyZ-YNcSRswqnrZ-174" vertex="1">
          <mxGeometry x="20" y="100" width="40" height="40" as="geometry" />
        </mxCell>
        <mxCell id="D4osHIyZ-YNcSRswqnrZ-93" value="" style="rounded=0;whiteSpace=wrap;html=1;" parent="D4osHIyZ-YNcSRswqnrZ-174" vertex="1">
          <mxGeometry x="40" y="40" width="40" height="40" as="geometry" />
        </mxCell>
        <mxCell id="D4osHIyZ-YNcSRswqnrZ-94" value="" style="rounded=0;whiteSpace=wrap;html=1;" parent="D4osHIyZ-YNcSRswqnrZ-174" vertex="1">
          <mxGeometry x="40" y="80" width="40" height="40" as="geometry" />
        </mxCell>
        <mxCell id="D4osHIyZ-YNcSRswqnrZ-95" value="" style="rounded=0;whiteSpace=wrap;html=1;" parent="D4osHIyZ-YNcSRswqnrZ-174" vertex="1">
          <mxGeometry x="40" y="160" width="40" height="40" as="geometry" />
        </mxCell>
        <mxCell id="D4osHIyZ-YNcSRswqnrZ-96" value="" style="rounded=0;whiteSpace=wrap;html=1;" parent="D4osHIyZ-YNcSRswqnrZ-174" vertex="1">
          <mxGeometry x="40" y="120" width="40" height="40" as="geometry" />
        </mxCell>
        <mxCell id="D4osHIyZ-YNcSRswqnrZ-97" value="" style="rounded=0;whiteSpace=wrap;html=1;fillColor=#dae8fc;strokeColor=#6c8ebf;" parent="D4osHIyZ-YNcSRswqnrZ-174" vertex="1">
          <mxGeometry x="60" y="60" width="40" height="40" as="geometry" />
        </mxCell>
        <mxCell id="D4osHIyZ-YNcSRswqnrZ-98" value="" style="rounded=0;whiteSpace=wrap;html=1;fillColor=#dae8fc;strokeColor=#6c8ebf;" parent="D4osHIyZ-YNcSRswqnrZ-174" vertex="1">
          <mxGeometry x="60" y="100" width="40" height="40" as="geometry" />
        </mxCell>
        <mxCell id="D4osHIyZ-YNcSRswqnrZ-99" value="" style="rounded=0;whiteSpace=wrap;html=1;fillColor=#dae8fc;strokeColor=#6c8ebf;" parent="D4osHIyZ-YNcSRswqnrZ-174" vertex="1">
          <mxGeometry x="60" y="180" width="40" height="40" as="geometry" />
        </mxCell>
        <mxCell id="D4osHIyZ-YNcSRswqnrZ-100" value="" style="rounded=0;whiteSpace=wrap;html=1;fillColor=#dae8fc;strokeColor=#6c8ebf;" parent="D4osHIyZ-YNcSRswqnrZ-174" vertex="1">
          <mxGeometry x="60" y="140" width="40" height="40" as="geometry" />
        </mxCell>
        <mxCell id="D4osHIyZ-YNcSRswqnrZ-101" value="" style="rounded=0;whiteSpace=wrap;html=1;" parent="D4osHIyZ-YNcSRswqnrZ-174" vertex="1">
          <mxGeometry x="80" y="80" width="40" height="40" as="geometry" />
        </mxCell>
        <mxCell id="D4osHIyZ-YNcSRswqnrZ-102" value="" style="rounded=0;whiteSpace=wrap;html=1;" parent="D4osHIyZ-YNcSRswqnrZ-174" vertex="1">
          <mxGeometry x="80" y="120" width="40" height="40" as="geometry" />
        </mxCell>
        <mxCell id="D4osHIyZ-YNcSRswqnrZ-103" value="" style="rounded=0;whiteSpace=wrap;html=1;" parent="D4osHIyZ-YNcSRswqnrZ-174" vertex="1">
          <mxGeometry x="80" y="200" width="40" height="40" as="geometry" />
        </mxCell>
        <mxCell id="D4osHIyZ-YNcSRswqnrZ-104" value="" style="rounded=0;whiteSpace=wrap;html=1;" parent="D4osHIyZ-YNcSRswqnrZ-174" vertex="1">
          <mxGeometry x="80" y="160" width="40" height="40" as="geometry" />
        </mxCell>
        <mxCell id="D4osHIyZ-YNcSRswqnrZ-105" value="" style="rounded=0;whiteSpace=wrap;html=1;" parent="D4osHIyZ-YNcSRswqnrZ-174" vertex="1">
          <mxGeometry x="80" y="80" width="40" height="40" as="geometry" />
        </mxCell>
        <mxCell id="D4osHIyZ-YNcSRswqnrZ-106" value="" style="rounded=0;whiteSpace=wrap;html=1;" parent="D4osHIyZ-YNcSRswqnrZ-174" vertex="1">
          <mxGeometry x="80" y="120" width="40" height="40" as="geometry" />
        </mxCell>
        <mxCell id="D4osHIyZ-YNcSRswqnrZ-107" value="" style="rounded=0;whiteSpace=wrap;html=1;" parent="D4osHIyZ-YNcSRswqnrZ-174" vertex="1">
          <mxGeometry x="80" y="200" width="40" height="40" as="geometry" />
        </mxCell>
        <mxCell id="D4osHIyZ-YNcSRswqnrZ-108" value="" style="rounded=0;whiteSpace=wrap;html=1;" parent="D4osHIyZ-YNcSRswqnrZ-174" vertex="1">
          <mxGeometry x="80" y="160" width="40" height="40" as="geometry" />
        </mxCell>
        <mxCell id="D4osHIyZ-YNcSRswqnrZ-109" value="" style="rounded=0;whiteSpace=wrap;html=1;fillColor=#dae8fc;strokeColor=#6c8ebf;" parent="D4osHIyZ-YNcSRswqnrZ-174" vertex="1">
          <mxGeometry x="100" y="100" width="40" height="40" as="geometry" />
        </mxCell>
        <mxCell id="D4osHIyZ-YNcSRswqnrZ-110" value="" style="rounded=0;whiteSpace=wrap;html=1;fillColor=#dae8fc;strokeColor=#6c8ebf;" parent="D4osHIyZ-YNcSRswqnrZ-174" vertex="1">
          <mxGeometry x="100" y="140" width="40" height="40" as="geometry" />
        </mxCell>
        <mxCell id="D4osHIyZ-YNcSRswqnrZ-111" value="" style="rounded=0;whiteSpace=wrap;html=1;fillColor=#dae8fc;strokeColor=#6c8ebf;" parent="D4osHIyZ-YNcSRswqnrZ-174" vertex="1">
          <mxGeometry x="100" y="220" width="40" height="40" as="geometry" />
        </mxCell>
        <mxCell id="D4osHIyZ-YNcSRswqnrZ-112" value="" style="rounded=0;whiteSpace=wrap;html=1;fillColor=#dae8fc;strokeColor=#6c8ebf;" parent="D4osHIyZ-YNcSRswqnrZ-174" vertex="1">
          <mxGeometry x="100" y="180" width="40" height="40" as="geometry" />
        </mxCell>
        <mxCell id="D4osHIyZ-YNcSRswqnrZ-175" value="" style="group" parent="1" vertex="1" connectable="0">
          <mxGeometry x="180" y="295" width="80" height="200" as="geometry" />
        </mxCell>
        <mxCell id="D4osHIyZ-YNcSRswqnrZ-25" value="" style="rounded=0;whiteSpace=wrap;html=1;" parent="D4osHIyZ-YNcSRswqnrZ-175" vertex="1">
          <mxGeometry width="40" height="40" as="geometry" />
        </mxCell>
        <mxCell id="D4osHIyZ-YNcSRswqnrZ-26" value="" style="rounded=0;whiteSpace=wrap;html=1;" parent="D4osHIyZ-YNcSRswqnrZ-175" vertex="1">
          <mxGeometry y="40" width="40" height="40" as="geometry" />
        </mxCell>
        <mxCell id="D4osHIyZ-YNcSRswqnrZ-27" value="" style="rounded=0;whiteSpace=wrap;html=1;" parent="D4osHIyZ-YNcSRswqnrZ-175" vertex="1">
          <mxGeometry y="80" width="40" height="40" as="geometry" />
        </mxCell>
        <mxCell id="D4osHIyZ-YNcSRswqnrZ-28" value="" style="rounded=0;whiteSpace=wrap;html=1;" parent="D4osHIyZ-YNcSRswqnrZ-175" vertex="1">
          <mxGeometry y="120" width="40" height="40" as="geometry" />
        </mxCell>
        <mxCell id="D4osHIyZ-YNcSRswqnrZ-29" value="" style="rounded=0;whiteSpace=wrap;html=1;fillColor=#dae8fc;strokeColor=#6c8ebf;" parent="D4osHIyZ-YNcSRswqnrZ-175" vertex="1">
          <mxGeometry x="20" y="20" width="40" height="40" as="geometry" />
        </mxCell>
        <mxCell id="D4osHIyZ-YNcSRswqnrZ-30" value="" style="rounded=0;whiteSpace=wrap;html=1;fillColor=#dae8fc;strokeColor=#6c8ebf;" parent="D4osHIyZ-YNcSRswqnrZ-175" vertex="1">
          <mxGeometry x="20" y="60" width="40" height="40" as="geometry" />
        </mxCell>
        <mxCell id="D4osHIyZ-YNcSRswqnrZ-31" value="" style="rounded=0;whiteSpace=wrap;html=1;fillColor=#dae8fc;strokeColor=#6c8ebf;" parent="D4osHIyZ-YNcSRswqnrZ-175" vertex="1">
          <mxGeometry x="20" y="140" width="40" height="40" as="geometry" />
        </mxCell>
        <mxCell id="D4osHIyZ-YNcSRswqnrZ-36" value="" style="rounded=0;whiteSpace=wrap;html=1;fillColor=#dae8fc;strokeColor=#6c8ebf;" parent="D4osHIyZ-YNcSRswqnrZ-175" vertex="1">
          <mxGeometry x="20" y="100" width="40" height="40" as="geometry" />
        </mxCell>
        <mxCell id="D4osHIyZ-YNcSRswqnrZ-113" value="" style="rounded=0;whiteSpace=wrap;html=1;" parent="D4osHIyZ-YNcSRswqnrZ-175" vertex="1">
          <mxGeometry x="40" y="40" width="40" height="40" as="geometry" />
        </mxCell>
        <mxCell id="D4osHIyZ-YNcSRswqnrZ-114" value="" style="rounded=0;whiteSpace=wrap;html=1;" parent="D4osHIyZ-YNcSRswqnrZ-175" vertex="1">
          <mxGeometry x="40" y="80" width="40" height="40" as="geometry" />
        </mxCell>
        <mxCell id="D4osHIyZ-YNcSRswqnrZ-115" value="" style="rounded=0;whiteSpace=wrap;html=1;" parent="D4osHIyZ-YNcSRswqnrZ-175" vertex="1">
          <mxGeometry x="40" y="160" width="40" height="40" as="geometry" />
        </mxCell>
        <mxCell id="D4osHIyZ-YNcSRswqnrZ-116" value="" style="rounded=0;whiteSpace=wrap;html=1;" parent="D4osHIyZ-YNcSRswqnrZ-175" vertex="1">
          <mxGeometry x="40" y="120" width="40" height="40" as="geometry" />
        </mxCell>
        <mxCell id="D4osHIyZ-YNcSRswqnrZ-176" value="" style="group" parent="1" vertex="1" connectable="0">
          <mxGeometry x="50" y="220" width="80" height="360" as="geometry" />
        </mxCell>
        <mxCell id="D4osHIyZ-YNcSRswqnrZ-1" value="" style="rounded=0;whiteSpace=wrap;html=1;" parent="D4osHIyZ-YNcSRswqnrZ-176" vertex="1">
          <mxGeometry width="40" height="40" as="geometry" />
        </mxCell>
        <mxCell id="D4osHIyZ-YNcSRswqnrZ-2" value="" style="rounded=0;whiteSpace=wrap;html=1;" parent="D4osHIyZ-YNcSRswqnrZ-176" vertex="1">
          <mxGeometry y="40" width="40" height="40" as="geometry" />
        </mxCell>
        <mxCell id="D4osHIyZ-YNcSRswqnrZ-3" value="" style="rounded=0;whiteSpace=wrap;html=1;" parent="D4osHIyZ-YNcSRswqnrZ-176" vertex="1">
          <mxGeometry y="80" width="40" height="40" as="geometry" />
        </mxCell>
        <mxCell id="D4osHIyZ-YNcSRswqnrZ-4" value="" style="rounded=0;whiteSpace=wrap;html=1;" parent="D4osHIyZ-YNcSRswqnrZ-176" vertex="1">
          <mxGeometry y="120" width="40" height="40" as="geometry" />
        </mxCell>
        <mxCell id="D4osHIyZ-YNcSRswqnrZ-5" value="" style="rounded=0;whiteSpace=wrap;html=1;" parent="D4osHIyZ-YNcSRswqnrZ-176" vertex="1">
          <mxGeometry y="160" width="40" height="40" as="geometry" />
        </mxCell>
        <mxCell id="D4osHIyZ-YNcSRswqnrZ-6" value="" style="rounded=0;whiteSpace=wrap;html=1;" parent="D4osHIyZ-YNcSRswqnrZ-176" vertex="1">
          <mxGeometry y="200" width="40" height="40" as="geometry" />
        </mxCell>
        <mxCell id="D4osHIyZ-YNcSRswqnrZ-7" value="" style="rounded=0;whiteSpace=wrap;html=1;" parent="D4osHIyZ-YNcSRswqnrZ-176" vertex="1">
          <mxGeometry y="240" width="40" height="40" as="geometry" />
        </mxCell>
        <mxCell id="D4osHIyZ-YNcSRswqnrZ-8" value="" style="rounded=0;whiteSpace=wrap;html=1;" parent="D4osHIyZ-YNcSRswqnrZ-176" vertex="1">
          <mxGeometry y="280" width="40" height="40" as="geometry" />
        </mxCell>
        <mxCell id="D4osHIyZ-YNcSRswqnrZ-9" value="" style="rounded=0;whiteSpace=wrap;html=1;fillColor=#dae8fc;strokeColor=#6c8ebf;" parent="D4osHIyZ-YNcSRswqnrZ-176" vertex="1">
          <mxGeometry x="20" y="20" width="40" height="40" as="geometry" />
        </mxCell>
        <mxCell id="D4osHIyZ-YNcSRswqnrZ-10" value="" style="rounded=0;whiteSpace=wrap;html=1;fillColor=#dae8fc;strokeColor=#6c8ebf;" parent="D4osHIyZ-YNcSRswqnrZ-176" vertex="1">
          <mxGeometry x="20" y="60" width="40" height="40" as="geometry" />
        </mxCell>
        <mxCell id="D4osHIyZ-YNcSRswqnrZ-11" value="" style="rounded=0;whiteSpace=wrap;html=1;fillColor=#dae8fc;strokeColor=#6c8ebf;" parent="D4osHIyZ-YNcSRswqnrZ-176" vertex="1">
          <mxGeometry x="20" y="100" width="40" height="40" as="geometry" />
        </mxCell>
        <mxCell id="D4osHIyZ-YNcSRswqnrZ-12" value="" style="rounded=0;whiteSpace=wrap;html=1;fillColor=#dae8fc;strokeColor=#6c8ebf;" parent="D4osHIyZ-YNcSRswqnrZ-176" vertex="1">
          <mxGeometry x="20" y="140" width="40" height="40" as="geometry" />
        </mxCell>
        <mxCell id="D4osHIyZ-YNcSRswqnrZ-13" value="" style="rounded=0;whiteSpace=wrap;html=1;fillColor=#dae8fc;strokeColor=#6c8ebf;" parent="D4osHIyZ-YNcSRswqnrZ-176" vertex="1">
          <mxGeometry x="20" y="180" width="40" height="40" as="geometry" />
        </mxCell>
        <mxCell id="D4osHIyZ-YNcSRswqnrZ-14" value="" style="rounded=0;whiteSpace=wrap;html=1;fillColor=#dae8fc;strokeColor=#6c8ebf;" parent="D4osHIyZ-YNcSRswqnrZ-176" vertex="1">
          <mxGeometry x="20" y="220" width="40" height="40" as="geometry" />
        </mxCell>
        <mxCell id="D4osHIyZ-YNcSRswqnrZ-15" value="" style="rounded=0;whiteSpace=wrap;html=1;fillColor=#dae8fc;strokeColor=#6c8ebf;" parent="D4osHIyZ-YNcSRswqnrZ-176" vertex="1">
          <mxGeometry x="20" y="260" width="40" height="40" as="geometry" />
        </mxCell>
        <mxCell id="D4osHIyZ-YNcSRswqnrZ-16" value="" style="rounded=0;whiteSpace=wrap;html=1;fillColor=#dae8fc;strokeColor=#6c8ebf;" parent="D4osHIyZ-YNcSRswqnrZ-176" vertex="1">
          <mxGeometry x="20" y="300" width="40" height="40" as="geometry" />
        </mxCell>
        <mxCell id="D4osHIyZ-YNcSRswqnrZ-17" value="" style="rounded=0;whiteSpace=wrap;html=1;" parent="D4osHIyZ-YNcSRswqnrZ-176" vertex="1">
          <mxGeometry x="40" y="40" width="40" height="40" as="geometry" />
        </mxCell>
        <mxCell id="D4osHIyZ-YNcSRswqnrZ-18" value="" style="rounded=0;whiteSpace=wrap;html=1;" parent="D4osHIyZ-YNcSRswqnrZ-176" vertex="1">
          <mxGeometry x="40" y="80" width="40" height="40" as="geometry" />
        </mxCell>
        <mxCell id="D4osHIyZ-YNcSRswqnrZ-19" value="" style="rounded=0;whiteSpace=wrap;html=1;" parent="D4osHIyZ-YNcSRswqnrZ-176" vertex="1">
          <mxGeometry x="40" y="120" width="40" height="40" as="geometry" />
        </mxCell>
        <mxCell id="D4osHIyZ-YNcSRswqnrZ-20" value="" style="rounded=0;whiteSpace=wrap;html=1;" parent="D4osHIyZ-YNcSRswqnrZ-176" vertex="1">
          <mxGeometry x="40" y="160" width="40" height="40" as="geometry" />
        </mxCell>
        <mxCell id="D4osHIyZ-YNcSRswqnrZ-21" value="" style="rounded=0;whiteSpace=wrap;html=1;" parent="D4osHIyZ-YNcSRswqnrZ-176" vertex="1">
          <mxGeometry x="40" y="200" width="40" height="40" as="geometry" />
        </mxCell>
        <mxCell id="D4osHIyZ-YNcSRswqnrZ-22" value="" style="rounded=0;whiteSpace=wrap;html=1;" parent="D4osHIyZ-YNcSRswqnrZ-176" vertex="1">
          <mxGeometry x="40" y="240" width="40" height="40" as="geometry" />
        </mxCell>
        <mxCell id="D4osHIyZ-YNcSRswqnrZ-23" value="" style="rounded=0;whiteSpace=wrap;html=1;" parent="D4osHIyZ-YNcSRswqnrZ-176" vertex="1">
          <mxGeometry x="40" y="280" width="40" height="40" as="geometry" />
        </mxCell>
        <mxCell id="D4osHIyZ-YNcSRswqnrZ-24" value="" style="rounded=0;whiteSpace=wrap;html=1;" parent="D4osHIyZ-YNcSRswqnrZ-176" vertex="1">
          <mxGeometry x="40" y="320" width="40" height="40" as="geometry" />
        </mxCell>
        <mxCell id="D4osHIyZ-YNcSRswqnrZ-179" style="edgeStyle=orthogonalEdgeStyle;rounded=0;orthogonalLoop=1;jettySize=auto;html=1;entryX=0.5;entryY=0;entryDx=0;entryDy=0;" parent="1" source="D4osHIyZ-YNcSRswqnrZ-177" target="D4osHIyZ-YNcSRswqnrZ-178" edge="1">
          <mxGeometry relative="1" as="geometry" />
        </mxCell>
        <mxCell id="D4osHIyZ-YNcSRswqnrZ-177" value="" style="ellipse;whiteSpace=wrap;html=1;aspect=fixed;" parent="1" vertex="1">
          <mxGeometry x="720" y="280" width="40" height="40" as="geometry" />
        </mxCell>
        <mxCell id="D4osHIyZ-YNcSRswqnrZ-181" style="edgeStyle=orthogonalEdgeStyle;rounded=0;orthogonalLoop=1;jettySize=auto;html=1;entryX=0.5;entryY=0;entryDx=0;entryDy=0;" parent="1" source="D4osHIyZ-YNcSRswqnrZ-178" target="D4osHIyZ-YNcSRswqnrZ-180" edge="1">
          <mxGeometry relative="1" as="geometry" />
        </mxCell>
        <mxCell id="D4osHIyZ-YNcSRswqnrZ-178" value="" style="ellipse;whiteSpace=wrap;html=1;aspect=fixed;" parent="1" vertex="1">
          <mxGeometry x="720" y="340" width="40" height="40" as="geometry" />
        </mxCell>
        <mxCell id="D4osHIyZ-YNcSRswqnrZ-187" style="edgeStyle=orthogonalEdgeStyle;rounded=0;orthogonalLoop=1;jettySize=auto;html=1;entryX=0.5;entryY=0;entryDx=0;entryDy=0;" parent="1" source="D4osHIyZ-YNcSRswqnrZ-180" target="D4osHIyZ-YNcSRswqnrZ-183" edge="1">
          <mxGeometry relative="1" as="geometry" />
        </mxCell>
        <mxCell id="D4osHIyZ-YNcSRswqnrZ-180" value="" style="ellipse;whiteSpace=wrap;html=1;aspect=fixed;" parent="1" vertex="1">
          <mxGeometry x="720" y="400" width="40" height="40" as="geometry" />
        </mxCell>
        <mxCell id="D4osHIyZ-YNcSRswqnrZ-182" style="edgeStyle=orthogonalEdgeStyle;rounded=0;orthogonalLoop=1;jettySize=auto;html=1;entryX=0.5;entryY=0;entryDx=0;entryDy=0;" parent="1" source="D4osHIyZ-YNcSRswqnrZ-183" target="D4osHIyZ-YNcSRswqnrZ-185" edge="1">
          <mxGeometry relative="1" as="geometry" />
        </mxCell>
        <mxCell id="D4osHIyZ-YNcSRswqnrZ-183" value="" style="ellipse;whiteSpace=wrap;html=1;aspect=fixed;" parent="1" vertex="1">
          <mxGeometry x="720" y="460" width="40" height="40" as="geometry" />
        </mxCell>
        <mxCell id="D4osHIyZ-YNcSRswqnrZ-185" value="" style="ellipse;whiteSpace=wrap;html=1;aspect=fixed;" parent="1" vertex="1">
          <mxGeometry x="720" y="520" width="40" height="40" as="geometry" />
        </mxCell>
        <mxCell id="D4osHIyZ-YNcSRswqnrZ-193" style="edgeStyle=orthogonalEdgeStyle;rounded=0;orthogonalLoop=1;jettySize=auto;html=1;entryX=0.5;entryY=0;entryDx=0;entryDy=0;" parent="1" source="D4osHIyZ-YNcSRswqnrZ-192" target="D4osHIyZ-YNcSRswqnrZ-177" edge="1">
          <mxGeometry relative="1" as="geometry" />
        </mxCell>
        <mxCell id="D4osHIyZ-YNcSRswqnrZ-192" value="" style="ellipse;whiteSpace=wrap;html=1;aspect=fixed;" parent="1" vertex="1">
          <mxGeometry x="720" y="220" width="40" height="40" as="geometry" />
        </mxCell>
        <mxCell id="D4osHIyZ-YNcSRswqnrZ-231" style="edgeStyle=orthogonalEdgeStyle;rounded=0;orthogonalLoop=1;jettySize=auto;html=1;entryX=1;entryY=0.5;entryDx=0;entryDy=0;" parent="1" edge="1">
          <mxGeometry relative="1" as="geometry">
            <mxPoint x="1150" y="395" as="sourcePoint" />
            <mxPoint x="1205" y="395" as="targetPoint" />
          </mxGeometry>
        </mxCell>
        <mxCell id="D4osHIyZ-YNcSRswqnrZ-197" value="&lt;font style=&quot;font-size: 18px;&quot;&gt;CNN层&lt;/font&gt;" style="text;html=1;align=center;verticalAlign=middle;resizable=0;points=[];autosize=1;strokeColor=none;fillColor=none;" parent="1" vertex="1">
          <mxGeometry x="280" y="630" width="80" height="40" as="geometry" />
        </mxCell>
        <mxCell id="D4osHIyZ-YNcSRswqnrZ-198" value="&lt;font style=&quot;font-size: 18px;&quot;&gt;卷积层1&lt;/font&gt;" style="text;html=1;align=center;verticalAlign=middle;resizable=0;points=[];autosize=1;strokeColor=none;fillColor=none;" parent="1" vertex="1">
          <mxGeometry x="40" y="190" width="90" height="40" as="geometry" />
        </mxCell>
        <mxCell id="D4osHIyZ-YNcSRswqnrZ-199" value="&lt;font style=&quot;font-size: 18px;&quot;&gt;最大池化层1&lt;/font&gt;" style="text;html=1;align=center;verticalAlign=middle;resizable=0;points=[];autosize=1;strokeColor=none;fillColor=none;" parent="1" vertex="1">
          <mxGeometry x="160" y="190" width="120" height="40" as="geometry" />
        </mxCell>
        <mxCell id="D4osHIyZ-YNcSRswqnrZ-200" value="&lt;font style=&quot;font-size: 18px;&quot;&gt;卷积层2&lt;/font&gt;" style="text;html=1;align=center;verticalAlign=middle;resizable=0;points=[];autosize=1;strokeColor=none;fillColor=none;" parent="1" vertex="1">
          <mxGeometry x="335" y="190" width="90" height="40" as="geometry" />
        </mxCell>
        <mxCell id="D4osHIyZ-YNcSRswqnrZ-201" value="&lt;font style=&quot;font-size: 18px;&quot;&gt;最大池化层2&lt;/font&gt;" style="text;html=1;align=center;verticalAlign=middle;resizable=0;points=[];autosize=1;strokeColor=none;fillColor=none;" parent="1" vertex="1">
          <mxGeometry x="500" y="190" width="120" height="40" as="geometry" />
        </mxCell>
        <mxCell id="D4osHIyZ-YNcSRswqnrZ-202" value="&lt;font style=&quot;font-size: 18px;&quot;&gt;GRU层&lt;/font&gt;" style="text;html=1;align=center;verticalAlign=middle;resizable=0;points=[];autosize=1;strokeColor=none;fillColor=none;" parent="1" vertex="1">
          <mxGeometry x="700" y="630" width="80" height="40" as="geometry" />
        </mxCell>
        <mxCell id="D4osHIyZ-YNcSRswqnrZ-203" value="&lt;font style=&quot;font-size: 18px;&quot;&gt;PDAtt层&lt;/font&gt;" style="text;html=1;align=center;verticalAlign=middle;resizable=0;points=[];autosize=1;strokeColor=none;fillColor=none;" parent="1" vertex="1">
          <mxGeometry x="855" y="630" width="90" height="40" as="geometry" />
        </mxCell>
        <mxCell id="D4osHIyZ-YNcSRswqnrZ-204" value="&lt;font style=&quot;font-size: 18px;&quot;&gt;Dropout层&lt;/font&gt;" style="text;html=1;align=center;verticalAlign=middle;resizable=0;points=[];autosize=1;strokeColor=none;fillColor=none;" parent="1" vertex="1">
          <mxGeometry x="1060" y="630" width="110" height="40" as="geometry" />
        </mxCell>
        <mxCell id="D4osHIyZ-YNcSRswqnrZ-232" style="edgeStyle=orthogonalEdgeStyle;rounded=0;orthogonalLoop=1;jettySize=auto;html=1;entryX=1;entryY=0.5;entryDx=0;entryDy=0;" parent="1" edge="1">
          <mxGeometry relative="1" as="geometry">
            <mxPoint x="1245" y="395" as="sourcePoint" />
            <mxPoint x="1305" y="395" as="targetPoint" />
          </mxGeometry>
        </mxCell>
        <mxCell id="D4osHIyZ-YNcSRswqnrZ-211" value="n" style="rounded=0;whiteSpace=wrap;html=1;" parent="1" vertex="1">
          <mxGeometry x="880" y="520" width="40" height="40" as="geometry" />
        </mxCell>
        <mxCell id="D4osHIyZ-YNcSRswqnrZ-212" value="n-1" style="rounded=0;whiteSpace=wrap;html=1;" parent="1" vertex="1">
          <mxGeometry x="880" y="480" width="40" height="40" as="geometry" />
        </mxCell>
        <mxCell id="D4osHIyZ-YNcSRswqnrZ-214" value="1" style="rounded=0;whiteSpace=wrap;html=1;" parent="1" vertex="1">
          <mxGeometry x="880" y="240" width="40" height="40" as="geometry" />
        </mxCell>
        <mxCell id="D4osHIyZ-YNcSRswqnrZ-215" value="2" style="rounded=0;whiteSpace=wrap;html=1;" parent="1" vertex="1">
          <mxGeometry x="880" y="280" width="40" height="40" as="geometry" />
        </mxCell>
        <mxCell id="D4osHIyZ-YNcSRswqnrZ-240" style="edgeStyle=orthogonalEdgeStyle;rounded=0;orthogonalLoop=1;jettySize=auto;html=1;" parent="1" source="D4osHIyZ-YNcSRswqnrZ-216" target="D4osHIyZ-YNcSRswqnrZ-239" edge="1">
          <mxGeometry relative="1" as="geometry" />
        </mxCell>
        <mxCell id="D4osHIyZ-YNcSRswqnrZ-216" value="……" style="rounded=0;whiteSpace=wrap;html=1;" parent="1" vertex="1">
          <mxGeometry x="880" y="320" width="40" height="160" as="geometry" />
        </mxCell>
        <mxCell id="D4osHIyZ-YNcSRswqnrZ-217" value="&lt;font style=&quot;font-size: 18px;&quot;&gt;位置编码&lt;/font&gt;" style="text;html=1;align=center;verticalAlign=middle;resizable=0;points=[];autosize=1;strokeColor=none;fillColor=none;" parent="1" vertex="1">
          <mxGeometry x="850" y="190" width="100" height="40" as="geometry" />
        </mxCell>
        <mxCell id="D4osHIyZ-YNcSRswqnrZ-235" value="&lt;font style=&quot;font-size: 18px;&quot;&gt;风机叶片结冰诊断结果输出&lt;/font&gt;" style="rounded=0;whiteSpace=wrap;html=1;" parent="1" vertex="1">
          <mxGeometry x="1310" y="190" width="40" height="410" as="geometry" />
        </mxCell>
        <mxCell id="D4osHIyZ-YNcSRswqnrZ-236" value="&lt;font style=&quot;font-size: 18px;&quot;&gt;分类&lt;/font&gt;" style="rounded=0;whiteSpace=wrap;html=1;" parent="1" vertex="1">
          <mxGeometry x="1210" y="190" width="40" height="410" as="geometry" />
        </mxCell>
        <mxCell id="D4osHIyZ-YNcSRswqnrZ-237" value="&lt;font style=&quot;font-size: 18px;&quot;&gt;全连接层&lt;/font&gt;" style="text;html=1;align=center;verticalAlign=middle;resizable=0;points=[];autosize=1;strokeColor=none;fillColor=none;" parent="1" vertex="1">
          <mxGeometry x="1180" y="630" width="100" height="40" as="geometry" />
        </mxCell>
        <mxCell id="D4osHIyZ-YNcSRswqnrZ-238" value="&lt;font style=&quot;font-size: 18px;&quot;&gt;随机丢弃部分神经元&lt;/font&gt;" style="rounded=0;whiteSpace=wrap;html=1;" parent="1" vertex="1">
          <mxGeometry x="1110" y="190" width="40" height="410" as="geometry" />
        </mxCell>
        <mxCell id="D4osHIyZ-YNcSRswqnrZ-239" value="&lt;font style=&quot;font-size: 18px;&quot;&gt;动态权重生成&lt;/font&gt;" style="rounded=0;whiteSpace=wrap;html=1;" parent="1" vertex="1">
          <mxGeometry x="980" y="240" width="40" height="320" as="geometry" />
        </mxCell>
        <mxCell id="l1kBNgppY7Q0AlLtdItp-3" value="" style="endArrow=none;dashed=1;html=1;dashPattern=1 3;strokeWidth=2;rounded=0;" parent="1" edge="1">
          <mxGeometry width="50" height="50" relative="1" as="geometry">
            <mxPoint x="140" y="295" as="sourcePoint" />
            <mxPoint x="170" y="305" as="targetPoint" />
          </mxGeometry>
        </mxCell>
        <mxCell id="l1kBNgppY7Q0AlLtdItp-7" value="" style="endArrow=none;dashed=1;html=1;dashPattern=1 3;strokeWidth=2;rounded=0;" parent="1" edge="1">
          <mxGeometry width="50" height="50" relative="1" as="geometry">
            <mxPoint x="140" y="450" as="sourcePoint" />
            <mxPoint x="170" y="440" as="targetPoint" />
          </mxGeometry>
        </mxCell>
        <mxCell id="l1kBNgppY7Q0AlLtdItp-8" value="" style="endArrow=none;dashed=1;html=1;dashPattern=1 3;strokeWidth=2;rounded=0;" parent="1" edge="1">
          <mxGeometry width="50" height="50" relative="1" as="geometry">
            <mxPoint x="265" y="340" as="sourcePoint" />
            <mxPoint x="295" y="350" as="targetPoint" />
          </mxGeometry>
        </mxCell>
        <mxCell id="l1kBNgppY7Q0AlLtdItp-9" value="" style="endArrow=none;dashed=1;html=1;dashPattern=1 3;strokeWidth=2;rounded=0;" parent="1" edge="1">
          <mxGeometry width="50" height="50" relative="1" as="geometry">
            <mxPoint x="270" y="495" as="sourcePoint" />
            <mxPoint x="300" y="485" as="targetPoint" />
          </mxGeometry>
        </mxCell>
        <mxCell id="l1kBNgppY7Q0AlLtdItp-10" value="" style="endArrow=none;dashed=1;html=1;dashPattern=1 3;strokeWidth=2;rounded=0;" parent="1" edge="1">
          <mxGeometry width="50" height="50" relative="1" as="geometry">
            <mxPoint x="460" y="380" as="sourcePoint" />
            <mxPoint x="490" y="390" as="targetPoint" />
          </mxGeometry>
        </mxCell>
        <mxCell id="l1kBNgppY7Q0AlLtdItp-11" value="" style="endArrow=none;dashed=1;html=1;dashPattern=1 3;strokeWidth=2;rounded=0;" parent="1" edge="1">
          <mxGeometry width="50" height="50" relative="1" as="geometry">
            <mxPoint x="460" y="460" as="sourcePoint" />
            <mxPoint x="490" y="450" as="targetPoint" />
          </mxGeometry>
        </mxCell>
        <mxCell id="ZMVVQIbbFwEwYx_7ASQk-3" style="edgeStyle=orthogonalEdgeStyle;rounded=0;orthogonalLoop=1;jettySize=auto;html=1;entryX=0;entryY=0.5;entryDx=0;entryDy=0;" edge="1" parent="1" source="ZMVVQIbbFwEwYx_7ASQk-2" target="D4osHIyZ-YNcSRswqnrZ-190">
          <mxGeometry relative="1" as="geometry" />
        </mxCell>
        <mxCell id="ZMVVQIbbFwEwYx_7ASQk-2" value="" style="rounded=0;whiteSpace=wrap;html=1;fillColor=#EFEFEF;" vertex="1" parent="1">
          <mxGeometry x="-130" y="235" width="90" height="320" as="geometry" />
        </mxCell>
        <mxCell id="ZMVVQIbbFwEwYx_7ASQk-4" value="&lt;font style=&quot;font-size: 18px;&quot;&gt;改进GAN均衡化的数据&lt;/font&gt;" style="text;html=1;align=center;verticalAlign=middle;resizable=0;points=[];autosize=1;strokeColor=none;fillColor=none;" vertex="1" parent="1">
          <mxGeometry x="-190" y="630" width="210" height="40" as="geometry" />
        </mxCell>
      </root>
    </mxGraphModel>
  </diagram>
</mxfile>
